<?xml version="1.0" ?><!DOCTYPE svg  PUBLIC '-//W3C//DTD SVG 1.0//EN'  'http://www.w3.org/TR/2001/REC-SVG-20010904/DTD/svg10.dtd'><svg height="110px" style="enable-background:new 0 0 110 110;" version="1.0" viewBox="0 0 110 110" width="110px" xml:space="preserve" xmlns="http://www.w3.org/2000/svg" xmlns:xlink="http://www.w3.org/1999/xlink"><g id="Multicolor"><g><path d="M83,76c-0.615-1.333-1.698-2.395-3.043-2.983L65,69v-6.006l-5.105,3.996    c-0.569,0.639-1.384,1.004-2.24,1.004H55h-2.655c-0.856,0-1.671-0.365-2.24-1.004L45,62.994V69l-14.957,4.017    C28.698,73.605,27.615,74.667,27,76l-4,11h32h32L83,76z" style="fill:#0484AB;"/><g><path d="M25.614,79.812L23,87h32h32l-2.143-5.894c-5.901-3.613-17.504-6.07-30.857-6.07     C42.312,75.036,31.971,76.92,25.614,79.812z" style="fill:#21B2D1;"/></g><path d="M66,69.275c0-0.264-0.214-0.479-0.479-0.479c-0.264,0-0.478,0.214-0.478,0.479    c0,2.625-4.941,5.703-8.298,7.411c-0.504-0.951-1.124-1.672-1.745-1.672s-1.241,0.721-1.745,1.672    c-3.357-1.707-8.299-4.785-8.299-7.411c0-0.264-0.214-0.479-0.478-0.479c-0.264,0-0.479,0.214-0.479,0.479    c0,3.338,5.731,6.696,8.853,8.277c-0.439,1.071-0.721,2.237-0.721,2.973c0,1.66,0.001,5.01,2.869,5.01s2.87-3.35,2.87-5.01    c0-0.736-0.283-1.903-0.722-2.974C60.271,75.97,66,72.613,66,69.275z" style="fill:#FFFFFF;"/><g><circle cx="55" cy="81.71" r="1.913" style="fill:#F37A10;"/></g><path d="M70,44.997c-1,0-1,1.111-1,1.111v-3.114c-0.003-1.647-0.041-3.193-0.178-4.622    c-8.553,2.738-21.336,2.574-27.076-3.224c-0.623,2.214-0.74,4.864-0.746,7.845v10l4,10l5.105,3.996    c0.569,0.639,1.384,1.004,2.24,1.004H55h2.655c0.856,0,1.671-0.365,2.24-1.004L65,62.994l3.207-8.017    C71.042,54.773,72,50.473,72,47.219C72,46.108,71,44.997,70,44.997z" style="fill:#FBC8C8;"/><path d="M41.746,35.149c-0.623,2.214-0.74,4.864-0.746,7.845v3.114c0,0,0-1.111-1-1.111s-2,1.111-2,2.222    c0,3.253,0.958,7.554,3.793,7.758L45,62.994l5.105,3.996c0.569,0.639,1.384,1.004,2.24,1.004H55V40.015    C49.727,39.685,44.763,38.196,41.746,35.149z" style="fill:#FBD7D7;"/><g><path d="M52,46.994c0-1.104-0.896-2-2-2c-0.002,0-0.004,0-0.006,0C49.995,45.016,50,45.036,50,45.057     c0,1.103-0.892,1.996-1.994,2c0.033,1.075,0.91,1.938,1.994,1.938C51.104,48.994,52,48.099,52,46.994z" style="fill:#3E3E3F;"/></g><g><path d="M61.994,46.994c0-1.104-0.896-2-2-2c-0.002,0-0.004,0-0.006,0     c0.001,0.021,0.006,0.041,0.006,0.062c0,1.103-0.892,1.996-1.994,2c0.033,1.075,0.91,1.938,1.994,1.938     C61.098,48.994,61.994,48.099,61.994,46.994z" style="fill:#3E3E3F;"/></g><g><path d="M50,56.994h10c0,0,0,3-5,3S50,56.994,50,56.994z" style="fill:#F79392;"/></g><path d="M75,35.261C73.089,21.373,42.079,20.2,41.049,32.489C39.832,33.175,39,34.464,39,35.961v9.036    c2,1,2,1.981,2,3.792v1.172h2V36.239c5.734,4.365,16.153,4.664,24,2.653v11.069h2v-1.172c0-1.811,0-2.792,2-3.792v-7.424    C72.588,36.906,73.956,36.128,75,35.261z" style="fill:#F3B607;"/><path d="M55,24.022c-7.114,0.21-13.493,3.006-13.951,8.467C39.832,33.175,39,34.464,39,35.961v9.036    c2,1,2,1.981,2,3.792v1.172h2V36.239c3.042,2.316,7.405,3.478,12,3.767V24.022z" style="fill:#FACB1B;"/></g></g></svg>