<?xml version="1.0" encoding="UTF-8" standalone="no"?>
<svg
   height="128px"
   viewBox="0 0 128 128"
   width="128px"
   version="1.1"
   id="svg8"
   sodipodi:docname="inode-directory-open.svg"
   inkscape:version="1.4.4 (dcaf3e7d9e, 2026-05-05)"
   xmlns:inkscape="http://www.inkscape.org/namespaces/inkscape"
   xmlns:sodipodi="http://sodipodi.sourceforge.net/DTD/sodipodi-0.dtd"
   xmlns="http://www.w3.org/2000/svg"
   xmlns:svg="http://www.w3.org/2000/svg">
  <defs
     id="defs8" />
  <sodipodi:namedview
     id="namedview8"
     pagecolor="#ffffff"
     bordercolor="#666666"
     borderopacity="1.0"
     inkscape:showpageshadow="2"
     inkscape:pageopacity="0.0"
     inkscape:pagecheckerboard="0"
     inkscape:deskcolor="#d1d1d1"
     inkscape:zoom="6.2734375"
     inkscape:cx="64"
     inkscape:cy="64"
     inkscape:window-width="1920"
     inkscape:window-height="1014"
     inkscape:window-x="0"
     inkscape:window-y="0"
     inkscape:window-maximized="1"
     inkscape:current-layer="svg8" />
  <linearGradient
     id="a"
     gradientTransform="matrix(0.45451 0 0 0.455522 -1210.292114 616.172607)"
     gradientUnits="userSpaceOnUse"
     x1="2689.251953"
     x2="2918.069824"
     y1="-1106.802979"
     y2="-1106.802979">
    <stop
       offset="0"
       stop-color="#62a0ea"
       id="stop1" />
    <stop
       offset="0.0576991"
       stop-color="#afd4ff"
       id="stop2" />
    <stop
       offset="0.122204"
       stop-color="#62a0ea"
       id="stop3" />
    <stop
       offset="0.873306"
       stop-color="#62a0ea"
       id="stop4" />
    <stop
       offset="0.955997"
       stop-color="#c0d5ea"
       id="stop5" />
    <stop
       offset="1"
       stop-color="#62a0ea"
       id="stop6" />
  </linearGradient>
  <path
     d="m 21.976562 12 c -5.527343 0 -9.976562 4.460938 -9.976562 10 v 86.03125 c 0 5.542969 4.449219 10 9.976562 10 h 84.042969 c 5.53125 0 9.980469 -4.457031 9.980469 -10 v -72.085938 c 0 -6.628906 -5.359375 -12 -11.972656 -12 h -46.027344 c -2.453125 0 -4.695312 -1.386718 -5.796875 -3.582031 l -1.503906 -2.992187 c -1.65625 -3.292969 -5.019531 -5.371094 -8.699219 -5.371094 z m 0 0"
     fill="#438de6"
     id="path6"
     style="fill:#1a76bf;fill-opacity:1" />
  <path
     d="m 78.193248,45.708593 c -2.746093,0 -5.389657,0.921739 -7.455322,2.41875 -2.607146,1.885972 -6.139294,4.275305 -9.389294,4.275305 H 33.008788 c -5.527343,0 -10.637039,3.732721 -11.457138,8.367569 l -8.287761,46.838773 c -0.820099,4.63486 2.968644,8.36757 8.495987,8.36757 h 84.042954 c 5.53125,0 10.64097,-3.73271 11.46107,-8.36757 l 9.4722,-53.532828 c 0.8201,-4.634849 -2.96862,-8.367569 -8.49987,-8.367569 z m 0,0"
     fill="#a4caee"
     id="path8"
     style="fill:#60adea;fill-opacity:1;stroke-width:0.914744" />
</svg>
